<?xml version="1.0" encoding="UTF-8" standalone="no"?>
<!-- Created with Inkscape (http://www.inkscape.org/) -->

<svg
   width="150mm"
   height="150mm"
   viewBox="0 0 210 297"
   version="1.1"
   id="svg1"
   inkscape:version="1.3.2 (091e20ef0f, 2023-11-25)"
   sodipodi:docname="logoabsolutetecnology.svg"
   xmlns:inkscape="http://www.inkscape.org/namespaces/inkscape"
   xmlns:sodipodi="http://sodipodi.sourceforge.net/DTD/sodipodi-0.dtd"
   xmlns:xlink="http://www.w3.org/1999/xlink"
   xmlns="http://www.w3.org/2000/svg"
   xmlns:svg="http://www.w3.org/2000/svg">
  <sodipodi:namedview
     id="namedview1"
     pagecolor="#ffffff"
     bordercolor="#000000"
     borderopacity="0.25"
     inkscape:showpageshadow="2"
     inkscape:pageopacity="0.0"
     inkscape:pagecheckerboard="0"
     inkscape:deskcolor="#d1d1d1"
     inkscape:document-units="mm"
     inkscape:zoom="0.82960326"
     inkscape:cx="607.51931"
     inkscape:cy="585.21949"
     inkscape:window-width="1920"
     inkscape:window-height="1011"
     inkscape:window-x="0"
     inkscape:window-y="0"
     inkscape:window-maximized="1"
     inkscape:current-layer="layer1" />
  <defs
     id="defs1">
    <linearGradient
       id="linearGradient12"
       inkscape:collect="always">
      <stop
         style="stop-color:#5f3b63;stop-opacity:1;"
         offset="0.52285266"
         id="stop12" />
      <stop
         style="stop-color:#000000;stop-opacity:0;"
         offset="1"
         id="stop13" />
    </linearGradient>
    <linearGradient
       id="linearGradient10"
       inkscape:collect="always">
      <stop
         style="stop-color:#342078;stop-opacity:0.92175782;"
         offset="0.51270086"
         id="stop10" />
      <stop
         style="stop-color:#2c576f;stop-opacity:0;"
         offset="1"
         id="stop11" />
    </linearGradient>
    <linearGradient
       id="linearGradient7"
       inkscape:collect="always">
      <stop
         style="stop-color:#000000;stop-opacity:1;"
         offset="0"
         id="stop7" />
      <stop
         style="stop-color:#000000;stop-opacity:0;"
         offset="1"
         id="stop8" />
    </linearGradient>
    <linearGradient
       inkscape:collect="always"
       xlink:href="#linearGradient7"
       id="linearGradient8"
       x1="81.740084"
       y1="133.79413"
       x2="89.111893"
       y2="133.79413"
       gradientUnits="userSpaceOnUse"
       gradientTransform="matrix(18.753728,0,0,17.531356,-1496.062,-2198.6809)" />
    <linearGradient
       inkscape:collect="always"
       xlink:href="#linearGradient10"
       id="linearGradient11"
       x1="85.270987"
       y1="94.058602"
       x2="166.03132"
       y2="94.058602"
       gradientUnits="userSpaceOnUse" />
    <linearGradient
       inkscape:collect="always"
       xlink:href="#linearGradient12"
       id="linearGradient13"
       x1="39.187494"
       y1="191.65037"
       x2="128.44672"
       y2="191.65037"
       gradientUnits="userSpaceOnUse" />
    <filter
       inkscape:collect="always"
       style="color-interpolation-filters:sRGB"
       id="filter13"
       x="-0.017613535"
       y="-0.014764657"
       width="1.0356355"
       height="1.0295204">
      <feGaussianBlur
         inkscape:collect="always"
         stdDeviation="0.60379152"
         id="feGaussianBlur13" />
    </filter>
    <filter
       inkscape:collect="always"
       style="color-interpolation-filters:sRGB"
       id="filter14"
       x="-0.019629199"
       y="-0.016576035"
       width="1.0391509"
       height="1.0331234">
      <feGaussianBlur
         inkscape:collect="always"
         stdDeviation="0.39646166"
         id="feGaussianBlur14" />
    </filter>
  </defs>
  <g
     inkscape:label="Layer 1"
     inkscape:groupmode="layer"
     id="layer1">
    <path
       style="opacity:0.613839;fill:url(#linearGradient8);stroke:#000000;stroke-width:1.697;stroke-dasharray:none;stroke-opacity:1;filter:url(#filter13)"
       d="m 152.26037,151.44391 12.8709,-4.08446 5.43683,-2.07744 0.53258,-0.37019 0.13358,-0.38054 -0.2833,-0.71453 -4.45401,-3.40058 c -6.77006,-6.25714 -5.46795,-4.65431 -8.30951,-9.62168 -1.02863,-1.79816 -1.4051,-1.72375 -2.92471,-5.77112 L 153.069,109.78911 c -6.62876,-17.947543 -4.64229,-15.49763 -9.96777,-23.362907 -5.43977,-4.926675 -12.31405,-9.572256 -21.66113,-13.866257 -7.44843,-2.461342 -14.61823,-3.595961 -27.495702,-3.308341 -9.147024,0.721619 -15.35146,3.010138 -24.666897,6.80892 -7.45176,5.644223 -8.103937,4.122454 -20.179237,18.526395 -2.732831,5.78254 -6.572419,11.30765 -8.521063,26.39795 0.550144,8.04881 0.622391,14.8505 3.318962,22.83647 3.288194,9.99642 5.752256,15.29896 8.504592,18.81098 4.155606,5.3026 6.621075,9.30706 11.787078,15.57946 4.497885,5.46119 3.103509,1.00105 5.162461,6.06077 l 0.204597,3.14074 1.348772,22.60931 1.014194,13.7211 c 16.007243,0.58204 25.835301,-1.18687 33.811893,-0.69774 15.05356,0.92214 16.9118,3.16809 30.04866,0.45405 -1.07196,-43.52283 1.14171,-14.3382 1.21768,-38.1193 1.98589,-0.62937 5.72592,-0.97475 9.46434,-1.3201 6.82318,1.66196 7.22945,0.0549 11.50078,-3.7242 0.17442,-6.0043 -2.28409,-7.21321 -3.50417,-10.02385 -4.0065,-11.27773 -3.26322,-10.89356 -3.0473,-17.39724 0.008,-0.22626 0.64953,-1.78502 0.14344,-0.98312"
       id="path5"
       sodipodi:nodetypes="cccccccscccccccccssccccscccccsc" />
    <path
       style="fill:url(#linearGradient13);fill-opacity:1;stroke:#000000;stroke-width:1.5;stroke-opacity:1;opacity:0.83618407;stroke-dasharray:none;stroke-linejoin:round;stroke-dashoffset:0"
       d="m 84.61172,129.96445 -45.424226,120.50843 14.242818,1.4323 19.735011,-48.4517 21.27727,-0.42326 16.756907,50.30607 c 0,0 15.79773,-1.30435 17.21461,-0.25597 1.41685,1.04662 -43.80239,-123.11534 -43.80239,-123.11534 z"
       id="path8"
       sodipodi:nodetypes="ccccccccc" />
    <path
       style="fill:url(#linearGradient11);fill-opacity:1;stroke:#000000;stroke-width:1.253;stroke-opacity:1;stroke-dasharray:2.50599974, 1.253;stroke-dashoffset:0;filter:url(#filter14)"
       d="m 137.14093,141.73703 -18.32936,-0.33444 0.7169,-78.701503 -34.076087,-0.284753 -0.181396,-15.692337 80.445263,-0.343824 0.31507,15.891036 -29.13614,0.973168 z"
       id="path9"
       sodipodi:nodetypes="ccccccccc" />
    <path
       style="opacity:0.836184;fill:#2c576f;fill-opacity:1;stroke:#000000;stroke-width:1.253;stroke-linejoin:round;stroke-dasharray:2.506, 1.253;stroke-dashoffset:0;stroke-opacity:1"
       d="m 90.42602,184.80622 c 0.325268,0.20397 1.533139,0.0609 1.151652,0.0177"
       id="path14" />
    <path
       style="opacity:0.836184;fill:#ffffff;fill-opacity:1;stroke:#000000;stroke-width:1.253;stroke-linejoin:round;stroke-dasharray:2.506, 1.253;stroke-dashoffset:0;stroke-opacity:1"
       d="m 93.11188,185.35039 -18.953165,0.18751 9.871512,-27.87243 z"
       id="path15"
       sodipodi:nodetypes="cccc" />
  </g>
</svg>
